# xmcd
#
# Track frame offsets:
#	150
#	23295
#	40434
#	55428
#	83563
#	113061
#	124136
#	147278
#	166148
#	183941
#	199030
#	219365
#	240727
#	263789
#	281630
#	295739
#	315477
#
# Disc length: 4402 seconds
#
# Revision: 2
# Processed by: cddbd v1.5.2PL0 Copyright (c) Steve Scherf et al.
# Submitted via: audiograbber 1.83.01
#
DISCID=eb113011
DTITLE=Mad Professor - Dubs that time forgot
DYEAR=2008
DGENRE=Reggae
TTITLE0=Banjul Belly
TTITLE1=Hungry Fraser Dub
TTITLE2=Zig Zag
TTITLE3=Wollaf Dance
TTITLE4=Invasion Dub
TTITLE5=No Strange Men
TTITLE6=Rasta Movement
TTITLE7=Dub Heavy Weight
TTITLE8=Nya Dub
TTITLE9=Rocking Vibration
TTITLE10=Malvina Song
TTITLE11=Dread Dub
TTITLE12=Rat Race Dub
TTITLE13=Moses Dub
TTITLE14=Slow and Deadly Dub
TTITLE15=Solar Dub
TTITLE16=10 to Dub
EXTD=
EXTT0=
EXTT1=
EXTT2=
EXTT3=
EXTT4=
EXTT5=
EXTT6=
EXTT7=
EXTT8=
EXTT9=
EXTT10=
EXTT11=
EXTT12=
EXTT13=
EXTT14=
EXTT15=
EXTT16=
PLAYORDER=
